<?xml version="1.0" encoding="UTF-8"?><svg id="Layer_1" xmlns="http://www.w3.org/2000/svg" viewBox="0 0 1000 1000"><defs><style>.cls-1{fill:#231f20;stroke:#c9c9c9;stroke-miterlimit:10;stroke-width:1px;}</style></defs><path class="cls-1" d="m4.5,376.14h37.51l17.34,190.4h.71l18.4-190.4h42.47l18.4,190.4h.71l17.34-190.4h33.62l-25.13,247.73h-48.48l-17.69-167.04h-.71l-17.69,167.04H29.63L4.5,376.14Z"/><path class="cls-1" d="m210.82,376.14h106.17v35.39h-67.24v65.47h53.44v35.39h-53.44v76.09h67.24v35.39h-106.17v-247.73Z"/><path class="cls-1" d="m339.28,376.14h58.75c20.05,0,34.68,4.66,43.88,13.98,9.2,9.32,13.8,23.66,13.8,43v9.91c0,12.74-2.07,23.12-6.19,31.14-4.13,8.02-10.44,13.8-18.93,17.34v.71c19.34,6.61,29.02,23.83,29.02,51.67v21.23c0,19.11-5.02,33.68-15.04,43.71-10.03,10.03-24.72,15.04-44.06,15.04h-61.22v-247.73Zm54.15,100.86c7.79,0,13.62-2,17.52-6.02,3.89-4.01,5.84-10.73,5.84-20.17v-13.8c0-8.96-1.59-15.45-4.78-19.46-3.19-4.01-8.2-6.02-15.04-6.02h-18.76v65.47h15.22Zm7.08,111.48c6.84,0,11.91-1.82,15.22-5.48,3.3-3.66,4.95-9.96,4.95-18.93v-21.59c0-11.32-1.95-19.17-5.84-23.53-3.89-4.36-10.32-6.55-19.29-6.55h-17.34v76.09h22.3Z"/><path class="cls-1" d="m490.04,611.3c-9.68-10.73-14.51-26.13-14.51-46.18v-14.16h36.81v16.99c0,16.05,6.72,24.06,20.17,24.06,6.6,0,11.62-1.95,15.04-5.84,3.42-3.89,5.13-10.2,5.13-18.93,0-10.38-2.36-19.52-7.08-27.43-4.72-7.9-13.45-17.4-26.19-28.49-16.05-14.16-27.25-26.95-33.62-38.4-6.37-11.44-9.55-24.36-9.55-38.75,0-19.58,4.95-34.74,14.86-45.48,9.91-10.73,24.3-16.1,43.18-16.1s32.74,5.37,42.29,16.1c9.55,10.74,14.33,26.13,14.33,46.18v10.26h-36.81v-12.74c0-8.49-1.65-14.69-4.95-18.58-3.31-3.89-8.14-5.84-14.51-5.84-12.98,0-19.46,7.91-19.46,23.71,0,8.97,2.42,17.34,7.25,25.13,4.83,7.79,13.63,17.22,26.37,28.31,16.28,14.16,27.48,27.02,33.62,38.58,6.13,11.56,9.2,25.13,9.2,40.7,0,20.29-5.02,35.86-15.04,46.71-10.03,10.85-24.6,16.28-43.71,16.28s-33.15-5.36-42.82-16.1Z"/><path class="cls-1" d="m613.9,376.14h106.17v35.39h-67.24v65.47h53.44v35.39h-53.44v76.09h67.24v35.39h-106.17v-247.73Z"/><path class="cls-1" d="m742.36,376.14h57.69c20.05,0,34.68,4.66,43.88,13.98,9.2,9.32,13.8,23.66,13.8,43v15.22c0,25.72-8.49,42-25.48,48.84v.71c9.43,2.83,16.1,8.61,20,17.34,3.89,8.73,5.84,20.41,5.84,35.04v43.53c0,7.08.23,12.8.71,17.16.47,4.37,1.65,8.67,3.54,12.92h-39.64c-1.42-4.01-2.36-7.79-2.83-11.32-.48-3.54-.71-9.91-.71-19.11v-45.3c0-11.32-1.83-19.23-5.49-23.71-3.66-4.48-9.97-6.72-18.93-6.72h-13.45v106.17h-38.93v-247.73Zm53.08,106.17c7.79,0,13.62-2,17.52-6.02,3.89-4.01,5.84-10.73,5.84-20.17v-19.11c0-8.96-1.59-15.45-4.78-19.46-3.19-4.01-8.2-6.02-15.04-6.02h-17.69v70.78h14.16Z"/><path class="cls-1" d="m873.3,376.14h39.28l25.48,192.17h.71l25.48-192.17h35.74l-37.51,247.73h-51.67l-37.51-247.73Z"/></svg>